<?xml version="1.0" encoding="UTF-8"?>
<!-- Generated by Pixelmator Pro 3.3.2 -->
<svg width="800" height="800" viewBox="0 0 800 800" xmlns="http://www.w3.org/2000/svg" xmlns:xlink="http://www.w3.org/1999/xlink">
    <path id="Trac" fill="#000000" fill-rule="evenodd" stroke="none" d="M 46.774078 399.993591 C 46.774078 204.916809 204.915192 46.775757 399.992004 46.775757 C 595.06665 46.775757 753.210632 204.916809 753.210632 399.993591 C 753.210632 595.06665 595.06665 753.210632 399.992004 753.210632 C 204.915192 753.210632 46.774078 595.06665 46.774078 399.993591 Z M 399.992004 97.442139 C 232.897598 97.442139 97.440536 232.89917 97.440536 399.993591 C 97.440536 478.504547 127.34613 550.031982 176.387741 603.802612 C 223.506134 530.196777 306.036285 481.332794 400.012268 481.332794 C 493.976532 481.332794 576.496033 530.185059 623.621338 603.776001 C 672.645325 550.010681 702.544006 478.49173 702.544006 399.993591 C 702.544006 232.89917 567.082642 97.442139 399.992004 97.442139 Z M 585.695984 638.864014 C 548.47467 574.906677 479.237305 531.999451 400.012268 531.999451 C 320.777588 531.999451 251.532791 574.917358 214.317322 638.885376 C 265.574402 678.783997 330.007996 702.544006 399.992004 702.544006 C 469.987732 702.544006 534.432007 678.773315 585.695984 638.864014 Z M 274.666138 346.926392 C 274.666138 277.706665 330.779724 221.593079 399.999451 221.593079 C 469.219208 221.593079 525.332764 277.706665 525.332764 346.926392 C 525.332764 416.146149 469.219208 472.259735 399.999451 472.259735 C 330.779724 472.259735 274.666138 416.146149 274.666138 346.926392 Z M 399.999451 272.259705 C 358.762146 272.259705 325.332794 305.689056 325.332794 346.926392 C 325.332794 388.163727 358.762146 421.593079 399.999451 421.593079 C 441.236786 421.593079 474.666138 388.163727 474.666138 346.926392 C 474.666138 305.689056 441.236786 272.259705 399.999451 272.259705 Z"/>
</svg>
